<?xml version="1.0" encoding="iso-8859-1"?>
<!-- Generator: Adobe Illustrator 18.0.0, SVG Export Plug-In . SVG Version: 6.00 Build 0)  -->
<!DOCTYPE svg PUBLIC "-//W3C//DTD SVG 1.1//EN" "http://www.w3.org/Graphics/SVG/1.1/DTD/svg11.dtd">
<svg version="1.1" id="Capa_1" xmlns="http://www.w3.org/2000/svg" xmlns:xlink="http://www.w3.org/1999/xlink" x="0px" y="0px"
	 viewBox="0 0 297 297" style="enable-background:new 0 0 297 297;" xml:space="preserve">
<g>
	<path fill="#663399" d="M176.123,89.156l-51.766-34.511c-0.519-0.346-1.12-0.528-1.741-0.528c-0.514,0-1.023,0.128-1.476,0.371
		c-1.025,0.548-1.661,1.608-1.661,2.768v69.021c0,1.159,0.635,2.219,1.658,2.766c1.002,0.539,2.274,0.474,3.22-0.155l51.766-34.511
		c0.875-0.583,1.397-1.559,1.397-2.61S176.998,89.74,176.123,89.156z"/>
	<path fill="#663399" d="M286.542,3.66H10.458C4.682,3.66,0,8.343,0,14.118v155.298c0,5.775,4.682,10.458,10.458,10.458h276.085
		c5.775,0,10.458-4.682,10.458-10.458V14.118C297,8.343,292.318,3.66,286.542,3.66z M184.244,106.559l-51.766,34.511
		c-2.93,1.954-6.341,2.986-9.862,2.986c-2.918,0-5.819-0.728-8.391-2.105c-5.789-3.1-9.386-9.106-9.386-15.673V57.256
		c0-6.568,3.598-12.574,9.388-15.674c2.568-1.377,5.47-2.105,8.389-2.105c3.523,0,6.934,1.034,9.864,2.988l51.764,34.51
		c4.957,3.304,7.917,8.834,7.917,14.792C192.161,97.725,189.201,103.255,184.244,106.559z"/>
	<path fill="#663399" d="M193.468,220.658v-16.732c0-5.775-4.682-10.458-10.458-10.458h-69.021c-5.775,0-10.458,4.682-10.458,10.458v16.732h27.713
		c8.353,0,15.359,5.797,17.255,13.575c1.896-7.777,8.902-13.575,17.255-13.575H193.468z"/>
	<path fill="#663399" d="M234.776,235.299h-69.021c-1.73,0-3.137,1.407-3.137,3.137v51.766c0,1.73,1.407,3.137,3.137,3.137h69.021
		c1.73,0,3.137-1.407,3.137-3.137v-51.766C237.914,236.707,236.506,235.299,234.776,235.299z"/>
	<path fill="#663399" d="M131.245,235.299H62.224c-1.73,0-3.137,1.407-3.137,3.137v51.766c0,1.73,1.407,3.137,3.137,3.137h69.021
		c1.73,0,3.137-1.407,3.137-3.137v-51.766C134.382,236.707,132.975,235.299,131.245,235.299z"/>
	<path fill="#663399" d="M286.542,193.468h-69.021c-5.775,0-10.458,4.682-10.458,10.458v16.732h27.713c9.803,0,17.778,7.975,17.778,17.778v27.713
		h33.988c5.775,0,10.458-4.682,10.458-10.458v-51.766C297,198.151,292.318,193.468,286.542,193.468z"/>
	<path fill="#663399" d="M89.937,220.658v-16.732c0-5.775-4.683-10.458-10.458-10.458H10.458C4.682,193.468,0,198.151,0,203.926v51.766
		c0,5.775,4.682,10.458,10.458,10.458h33.988v-27.713c0-9.803,7.975-17.778,17.778-17.778H89.937z"/>
</g>
</svg>
